<svg xmlns="http://www.w3.org/2000/svg" viewBox="0 0 514.08 550.651">
  <path
    d="M486.295.25s-34.158 37.317-67.297 64.084c-58.154 46.971-91.194
    54.945-162.653 77.11-60.379 18.727-145.427 43.348-182.825 94.316-31.683
    43.18-37.634 94.353-17.323 143.909 2.408 5.873 5.342 11.5 8.732 16.878
    34.773-38.174 98.83-95.01 129.794-119.97 49.91-43.445 82.497-45.235
    125.21-52.086-36.337 12.862-74.306 29.866-147.426 104.517-28.983 28.599-59.136
    60.21-85.028 94.344l.219.2C57.638 460.858 27.315 499.973.226 527.26l49.512
    23.212c15.231-37.664 38.178-73.677 63.716-107.258 23.132 14.694 49.705 25.055
    74.889 30.844 73.212 16.83 148.275 23.278 222.179-37.756 71.18-58.784
    109.42-243.556 102.659-332.099C510.312 66.638 486.295.251 486.295.251z"
  />
</svg>
