<svg xmlns="http://www.w3.org/2000/svg" viewBox="0 0 472.59 608.12">
  <path d="M0 220.27l6.13 43.35C35.81 473.4 139.18 648.48 316.82 599.96l39.97-10.92L317.3 444.5C287.63 335.84 215.28 257.64 144.5 250.21a776.95 776.95 0 01-49.53-6.78 670.74 670.74 0 01-83.62-19.69z" fill="#63d9fd"/>
  <path d="M288.1 0l-4.36 12.33a752.63 752.63 0 01-36.8 86.26 836.24 836.24 0 01-25.68 47.3c-38.48 65.85-21.84 187.95 45.69 297.46l89.84 145.7 33.7-25.46c149.83-113.13 75.85-336.74-71.86-524.74z" fill="#4fed96"/>
  <path d="M203.53 272.32c7.04 53.99 28.37 114.2 63.42 171.03l89.84 145.7v-.01L317.3 444.49c-21.35-78.14-64.76-140.53-113.78-172.17z" fill="#7dffcc"/>
</svg>
